<?xml version="1.0" ?><svg id="Layer_1" style="enable-background:new 0 0 74 74;" version="1.1" viewBox="0 0 74 74" xml:space="preserve" xmlns="http://www.w3.org/2000/svg" xmlns:xlink="http://www.w3.org/1999/xlink"><style type="text/css">
	.st0{fill:#ffffff;}
</style><path class="st0" d="M60.6,15.8H49.9C48.9,5.9,40,5.9,37,5.9s-11.9,0-12.9,9.9H13.4C7.6,15.8,3,20.4,3,26.1v31.6  c0,5.7,4.6,10.4,10.4,10.4h47.3c5.7,0,10.4-4.7,10.4-10.4V26.1C71,20.4,66.3,15.8,60.6,15.8z M37,9.9c5.8,0,8.3,1.6,8.9,5.9H28.1  C28.7,11.5,31.2,9.9,37,9.9z M13.4,19.8h47.3c3.5,0,6.4,2.9,6.4,6.4v8.8H7v-8.8C7,22.6,9.9,19.8,13.4,19.8z M51.7,38.9h5.5v7.9h-5.5  V38.9z M16.7,38.9h5.5v7.9h-5.5V38.9z M60.6,64.1H13.4c-3.5,0-6.4-2.9-6.4-6.4V38.9h5.7v9.9c0,1.1,0.9,2,2,2h9.5c1.1,0,2-0.9,2-2  v-9.9h21.5v9.9c0,1.1,0.9,2,2,2h9.5c1.1,0,2-0.9,2-2v-9.9H67v18.8C67,61.2,64.1,64.1,60.6,64.1z"/></svg>